v -0.50000000 -0.50000000 -0.50000000
v -0.50000000 -0.50000000 -0.50000000
v -0.50000000 -0.50000000 -0.50000000
v -0.50000000 -0.50000000 0.50000000
v -0.50000000 -0.50000000 0.50000000
v -0.50000000 -0.50000000 0.50000000
v -0.50000000 0.50000000 -0.50000000
v -0.50000000 0.50000000 -0.50000000
v -0.50000000 0.50000000 0.50000000
v -0.50000000 0.50000000 0.50000000
v 0.50000000 -0.50000000 -0.50000000
v 0.50000000 -0.50000000 -0.50000000
v 0.50000000 -0.50000000 0.50000000
v 0.50000000 -0.50000000 0.50000000
v 0.50000000 -0.50000000 0.50000000
v 0.50000000 0.50000000 -0.50000000
v 0.50000000 0.50000000 0.50000000
v 0.50000000 0.50000000 0.50000000
vn 0.00000000 -1.00000000 0.00000000
vn -1.00000000 0.00000000 0.00000000
vn 0.00000000 0.00000000 -1.00000000
vn 0.00000000 0.00000000 1.00000000
vn 0.00000000 -1.00000000 0.00000000
vn -1.00000000 0.00000000 0.00000000
vn -0.70710678 0.70710678 0.00000000
vn 0.00000000 0.00000000 -1.00000000
vn -0.70710678 0.70710678 0.00000000
vn 0.00000000 0.00000000 1.00000000
vn 0.70710678 0.00000000 -0.70710678
vn 0.00000000 -1.00000000 0.00000000
vn 0.00000000 0.00000000 1.00000000
vn 1.00000000 0.00000000 0.00000000
vn 0.00000000 -1.00000000 0.00000000
vn 0.57735027 0.57735027 -0.57735027
vn 0.70710678 0.70710678 0.00000000
vn 0.00000000 0.00000000 1.00000000
f 4//4 13//13 18//18
f 4//4 18//18 10//10
f 16//16 11//11 3//3
f 8//8 16//16 3//3
f 9//9 7//7 2//2
f 6//6 9//9 2//2
f 11//11 16//16 17//17
f 11//11 17//17 14//14
f 15//15 5//5 1//1
f 12//12 15//15 1//1
f 7//7 9//9 17//17
f 7//7 17//17 16//16